<svg xmlns="http://www.w3.org/2000/svg" viewBox="0 0 143.74 60">
  <rect width="60" height="60" rx="13" style="fill:#3343e0"/>
  <path d="M41.89,43.43a18,18,0,1,1-13-31.4v7.52a10.48,10.48,0,1,0,7.7,18.58Z" style="fill:#fff"/>
  <path d="M47.94,31.09a17.69,17.69,0,0,1-4.47,10.75l-5.3-5.3a10.27,10.27,0,0,0,2.25-5.45Z" style="fill:#fff"/>
  <path d="M47.94,28.84H40.42a10.46,10.46,0,0,0-9.29-9.29V12A18,18,0,0,1,47.94,28.84Z" style="fill:#fff"/>
  <g style="isolation:isolate">
    <g style="isolation:isolate">
      <path d="M90.75,41H77.1V17.66H90.33a6.85,6.85,0,0,1,5,1.76,5.7,5.7,0,0,1,1.78,4.19A5.51,5.51,0,0,1,96,27.14,5,5,0,0,1,93.17,29a4.83,4.83,0,0,1,3.16,1.91,6,6,0,0,1,1.28,3.8,6.18,6.18,0,0,1-1.78,4.51A6.83,6.83,0,0,1,90.75,41ZM89,26.62a2.09,2.09,0,0,0,1.49-.55A1.83,1.83,0,0,0,91,24.66a1.8,1.8,0,0,0-.58-1.39A2.08,2.08,0,0,0,89,22.73H83.12v3.89Zm.21,9.3a2.39,2.39,0,0,0,1.7-.57,2,2,0,0,0,.61-1.52,2,2,0,0,0-.61-1.51,2.32,2.32,0,0,0-1.7-.6h-6v4.2Z" style="fill:#303778"/>
      <path d="M109.58,41.42q-6.48,0-10.36-3.71l3.18-4.51a10.18,10.18,0,0,0,7.46,3.08,4.65,4.65,0,0,0,2.43-.55,1.58,1.58,0,0,0,.89-1.38c0-.49-.32-.89-1-1.21a9,9,0,0,0-2.46-.7,24.09,24.09,0,0,1-3.18-.73,24.87,24.87,0,0,1-3.19-1.19,6,6,0,0,1-2.45-2.19,6.49,6.49,0,0,1-1-3.61,6.71,6.71,0,0,1,2.5-5.25,10,10,0,0,1,6.8-2.17,14,14,0,0,1,9.49,3.26l-3.29,4.31a10.4,10.4,0,0,0-6.83-2.42c-1.67,0-2.51.56-2.51,1.68,0,.44.32.82,1,1.14a9.66,9.66,0,0,0,2.45.72,24.73,24.73,0,0,1,3.17.75A22,22,0,0,1,115.88,28a5.91,5.91,0,0,1,2.45,2.17,6.15,6.15,0,0,1,1,3.5,7,7,0,0,1-2.56,5.68Q114.2,41.42,109.58,41.42Z" style="fill:#303778"/>
      <path d="M133.55,41.42a12.72,12.72,0,0,1-9-3.38,11.39,11.39,0,0,1-3.6-8.7,11.41,11.41,0,0,1,3.59-8.71,12.69,12.69,0,0,1,9-3.36,10.63,10.63,0,0,1,10.19,6.27L138.56,26a5.55,5.55,0,0,0-2-2.42,5.14,5.14,0,0,0-3-1,6.17,6.17,0,0,0-4.67,1.94A6.77,6.77,0,0,0,127,29.34a6.77,6.77,0,0,0,1.84,4.82,6.17,6.17,0,0,0,4.67,1.94,5.14,5.14,0,0,0,3-1,5.58,5.58,0,0,0,2-2.41l5.18,2.45a12.23,12.23,0,0,1-3.83,4.46A10.63,10.63,0,0,1,133.55,41.42Z" style="fill:#303778"/>
    </g>
  </g>
</svg>
