<svg xmlns="http://www.w3.org/2000/svg" viewBox="0 0 512 426.67">
  <path d="M469.33,106.67H362.67V85.33A42.71,42.71,0,0,0,320,42.67H192a42.71,42.71,0,0,0-42.67,42.66v21.34H42.67A42.71,42.71,0,0,0,0,149.33v64A42.71,42.71,0,0,0,42.67,256H213.33V245.33A10.67,10.67,0,0,1,224,234.67h64a10.66,10.66,0,0,1,10.67,10.66V256H469.34A42.71,42.71,0,0,0,512,213.33v-64A42.71,42.71,0,0,0,469.33,106.67Zm-149.33,0H192V85.33H320Z" transform="translate(0 -42.67)"/>
  <path d="M506.08,267.51a10.66,10.66,0,0,0-11.18,1.05,42.15,42.15,0,0,1-25.57,8.77H298.67v32A10.66,10.66,0,0,1,288,320H224a10.66,10.66,0,0,1-10.67-10.67v-32H42.67a42.15,42.15,0,0,1-25.57-8.77A10.66,10.66,0,0,0,0,277.06V426.67a42.71,42.71,0,0,0,42.67,42.66H469.33A42.71,42.71,0,0,0,512,426.67V277.06A10.65,10.65,0,0,0,506.08,267.51Z" transform="translate(0 -42.67)"/>
</svg>
