<svg xmlns="http://www.w3.org/2000/svg" viewBox="0 0 512 512">
  <circle cx="256" cy="256" r="106.67"/>
  <path d="M490.67,234.67H468.25C458.22,134,378,53.78,277.33,43.75V21.33a21.33,21.33,0,1,0-42.66,0V43.75C134,53.78,53.78,134,43.75,234.67H21.33a21.33,21.33,0,0,0,0,42.66H43.75C53.8,378,134,458.22,234.67,468.25v22.42a21.33,21.33,0,1,0,42.66,0V468.25C378,458.2,458.22,378,468.25,277.33h22.42a21.33,21.33,0,0,0,0-42.66ZM277,425.24a21.06,21.06,0,0,0-42.06,0A170.83,170.83,0,0,1,86.78,277.06a21.08,21.08,0,0,0,0-42.09A170.83,170.83,0,0,1,234.94,86.78a21.08,21.08,0,0,0,42.09,0A170.83,170.83,0,0,1,425.22,234.94a21.08,21.08,0,0,0,0,42.09A170.87,170.87,0,0,1,277,425.24Z" transform="translate(0 0)"/>
</svg>
