<svg xmlns="http://www.w3.org/2000/svg" viewBox="0 0 416.61 512">
  <path d="M462.21,50.78a15,15,0,0,0-15.62-7.11C372.37,57.34,315.13,39.8,259.78,22.85c-65.5-20.06-127.36-39-203.79-.8a15,15,0,0,0-8.3,13.42V277.65L55,273.28c.32-.19.64-.37,1-.53,76.43-38.21,138.29-19.27,203.79.79,55.35,17,112.6,34.49,186.81,20.83.34-.07.68-.12,1-.16l8-.91L365.12,185.51,460.94,67.89A15,15,0,0,0,462.21,50.78Z" transform="translate(-47.69 0)"/>
  <path d="M69.89,299.33l-22.2,13.25v151a15,15,0,0,0,4.4,10.61l33.44,33.4a15,15,0,0,0,21.2,0l33.43-33.4a15,15,0,0,0,4.4-10.61V280.83C120.71,281.08,96.27,286.23,69.89,299.33Z" transform="translate(-47.69 0)"/>
</svg>
