<svg xmlns="http://www.w3.org/2000/svg" viewBox="0 0 512 469.5">
  <path d="M130.63,437.21H94c-2.06,0-2.88-2.06-2.06-3.71a19.42,19.42,0,0,1,4.94-5.76c11.12-10.29,19-18.12,23.48-23.88a99.78,99.78,0,0,0,15.24-25.54,75.25,75.25,0,0,0,4.94-26.77c0-16.89-6.18-31.71-18.54-43.24C110,296.78,93.57,291,73.39,291c-18.12,0-33.77,4.94-46.54,14.42-13.18,9.88-21,25.94-23.06,47.77a10.36,10.36,0,0,0,2.47,8.24c1.64,2.47,4.53,3.7,7.41,4.11l33.77,3.3c2.88.42,5.77-.82,8.24-2.47a9.56,9.56,0,0,0,3.7-7.82c.42-9.48,2.89-12.77,4.12-14.42,1.24-1.24,3.71-3.3,9.06-3.3,6.18,0,8.24,2.06,9.06,2.89,2.06,2.06,2.89,5.35,2.89,9.47,0,4.53-1.65,9.48-5,14.41-1.64,2.48-7.41,9.06-26.35,27.19-19.77,18.53-32.95,32.95-39.95,44.89A92.37,92.37,0,0,0,.08,478,11.12,11.12,0,0,0,3,486.64a10.37,10.37,0,0,0,8.24,3.71H133.52a7.82,7.82,0,0,0,7.82-7.83v-35C141.34,442.15,136.4,437.21,130.63,437.21Z" transform="translate(0 -21.25)"/>
  <path d="M107.57,214.82a13,13,0,0,0,13.18-13.18V33.19c0-7.41-4.94-11.94-12.36-11.94H78.33a14.93,14.93,0,0,0-12.77,7.82c-3.7,8.24-9.06,14.83-16.88,21a93.35,93.35,0,0,1-23.89,14c-5.35,2.06-7,6.59-7,12.36v26.35c0,9.06,7.41,15.65,16.47,12.77,2.88-.82,4.53-2.06,7-2.88C50.32,109,59,115.56,59,125v77a13,13,0,0,0,13.18,13.18h35.42Z" transform="translate(0 -21.25)"/>
  <path d="M485.23,21.25h-280A26.71,26.71,0,0,0,178.41,48v53.54a26.71,26.71,0,0,0,26.77,26.77H485.23A26.71,26.71,0,0,0,512,101.56V48A26.71,26.71,0,0,0,485.23,21.25Z" transform="translate(0 -21.25)"/>
  <path d="M485.23,202.46h-280a26.71,26.71,0,0,0-26.77,26.77v53.54a26.71,26.71,0,0,0,26.77,26.77H485.23A26.71,26.71,0,0,0,512,282.77V229.23A26.71,26.71,0,0,0,485.23,202.46Z" transform="translate(0 -21.25)"/>
  <path d="M485.23,383.67h-280a26.71,26.71,0,0,0-26.77,26.77V464a26.71,26.71,0,0,0,26.77,26.77H485.23A26.71,26.71,0,0,0,512,464V410.44A26.71,26.71,0,0,0,485.23,383.67Z" transform="translate(0 -21.25)"/>
</svg>
