<svg xmlns="http://www.w3.org/2000/svg" viewBox="0 0 512 512">
  <path d="M100.43,237.86H0V0H237.86V64.37a63.86,63.86,0,0,0,0,127.26v46.23H155.57v31.29a27.57,27.57,0,1,1-55.14,0Z" transform="translate(0 0)"/>
  <path d="M296.72,384a27.6,27.6,0,0,1-27.57,27.58H237.86V512H0V274.14H64.34a63.86,63.86,0,0,0,127.32,0h46.2v82.29h31.29A27.6,27.6,0,0,1,296.72,384Z" transform="translate(0 0)"/>
  <path d="M512,0V237.86H447.62a63.85,63.85,0,0,0-127.25,0H274.14V155.57H243.26a27.57,27.57,0,1,1,0-55.14h30.88V0Z" transform="translate(0 0)"/>
</svg>
