<svg xmlns="http://www.w3.org/2000/svg" viewBox="0 0 612 611.44">
  <path d="M316.34,106.54c12.48,14,21.3,31.27,26.22,51.35,4.67,19.07,5.71,40.28,3.11,63-1,8.42-2.4,18-4.48,28,16.12,15.61,37.24,25.52,64.7,25.52,76.18,0,103.59-76.28,110.77-138.94C525.5,58.37,489,.28,405.89.28c-65.21,0-101.72,35.79-110.15,88.5A105.59,105.59,0,0,1,316.34,106.54Z" transform="translate(0 -0.28)"/>
  <path d="M612,456.13A518.3,518.3,0,0,0,604,383.46c-5.13-29-11.68-71.51-37-90.4-14.64-10.93-33.6-14.51-50.36-21.1a216.93,216.93,0,0,1-22.32-10c-23.15,25.38-53.34,38.66-88.49,38.66-27.35,0-51.67-8.08-72-23.61a189.18,189.18,0,0,1-19.35,42.44c7.37,4.44,15.34,8,25,11.79,4.29,1.68,9,3.22,14,4.85,13.47,4.4,28.73,9.39,42.44,19.62,32.58,24.32,40.6,69.9,46.46,103.18l.63,3.59c3,17.06,5.26,33.83,6.69,50.12A741.16,741.16,0,0,0,527,500a454.85,454.85,0,0,0,60.6-16.72C603.32,477.61,612.61,475,612,456.13Z" transform="translate(0 -0.28)"/>
  <path d="M430.17,464.75l-.63-3.6c-5.48-31.13-13-73.76-41.41-95-12-8.95-25.57-13.39-38.7-17.68-5.17-1.69-10.05-3.28-14.69-5.11-6.78-2.66-12.89-5.27-18.61-8.15-24,32.07-57.35,49-97,49s-72.93-16.89-97-49c-5.72,2.88-11.83,5.49-18.61,8.15-4.64,1.83-9.53,3.42-14.7,5.11-13.12,4.29-26.7,8.73-38.69,17.68-28.44,21.22-35.94,63.86-41.41,95l-.64,3.59A536,536,0,0,0,0,539.25c-.95,27.69,16.23,33.86,31.39,39.3l1.63.59c18.23,6.58,38.62,12.21,62.34,17.22,48.43,10.23,87.72,15.11,123.67,15.36h.19c36-.25,75.24-5.13,123.67-15.36,23.72-5,44.11-10.64,62.33-17.22l1.63-.58c15.16-5.45,32.35-11.62,31.4-39.31A534.11,534.11,0,0,0,430.17,464.75Z" transform="translate(0 -0.28)"/>
  <path d="M220.18,363.91c76.18,0,103.59-76.28,110.76-138.94,8.84-77.19-27.66-135.28-110.76-135.28S100.56,147.78,109.41,225C116.59,287.63,144,363.92,220.18,363.91Z" transform="translate(0 -0.28)"/>
</svg>
